<svg width="39" height="39" viewBox="0 0 39 39" fill="none" xmlns="http://www.w3.org/2000/svg">
<path d="M19.1667 38.3333C8.5812 38.3333 0 29.752 0 19.1667C0 8.5812 8.5812 0 19.1667 0C29.752 0 38.3333 8.5812 38.3333 19.1667C38.3333 29.752 29.752 38.3333 19.1667 38.3333ZM14.7775 33.8625C12.9326 29.9496 11.8015 25.6339 11.5523 21.0833H3.95196C4.71117 27.1716 9.03975 32.1515 14.7775 33.8625ZM15.3922 21.0833C15.6804 25.7577 17.0158 30.1486 19.1667 34.0247C21.3175 30.1486 22.6529 25.7577 22.9412 21.0833H15.3922ZM34.3814 21.0833H26.781C26.5318 25.6339 25.4008 29.9496 23.5558 33.8625C29.2936 32.1515 33.6222 27.1716 34.3814 21.0833ZM3.95196 17.25H11.5523C11.8015 12.6994 12.9326 8.38363 14.7775 4.47074C9.03975 6.18188 4.71117 11.1617 3.95196 17.25ZM15.3922 17.25H22.9412C22.6529 12.5757 21.3175 8.18465 19.1667 4.30865C17.0158 8.18465 15.6804 12.5757 15.3922 17.25ZM23.5558 4.47074C25.4008 8.38363 26.5318 12.6994 26.781 17.25H34.3814C33.6222 11.1617 29.2936 6.18188 23.5558 4.47074Z" fill="white"/>
</svg>
