<svg width="20" height="24" viewBox="0 0 20 24" fill="none" xmlns="http://www.w3.org/2000/svg">
<path d="M16.8943 16.8123L10 23.7065L3.10571 16.8123C-0.701903 13.0046 -0.701903 6.83129 3.10571 3.02368C6.91332 -0.783935 13.0866 -0.783935 16.8943 3.02368C20.7019 6.83129 20.7019 13.0046 16.8943 16.8123ZM10 14.2513C12.3932 14.2513 14.3333 12.3112 14.3333 9.91797C14.3333 7.52473 12.3932 5.58464 10 5.58464C7.60677 5.58464 5.66667 7.52473 5.66667 9.91797C5.66667 12.3112 7.60677 14.2513 10 14.2513ZM10 12.0846C8.80335 12.0846 7.83333 11.1146 7.83333 9.91797C7.83333 8.72135 8.80335 7.7513 10 7.7513C11.1967 7.7513 12.1667 8.72135 12.1667 9.91797C12.1667 11.1146 11.1967 12.0846 10 12.0846Z" fill="white"/>
</svg>
