<svg width="198" height="273" viewBox="0 0 198 273" fill="none" xmlns="http://www.w3.org/2000/svg">
<path d="M120.57 64.0679L122.169 63.9941L195.718 106.498V230.11L121.744 272.605L118.656 271.379L47.2617 229.797L47.3911 106.48L120.57 64.0679ZM121.43 69.6908L55.4522 108.01L120.376 145.628L121.744 145.96L187.666 108.01L121.43 69.6908ZM190.726 119.062V112.554L124.175 150.726V157.234L136.674 149.97C140.898 149.343 141.971 152.357 138.67 154.994C134.705 158.165 128.298 160.276 124.175 163.529V171.549L137.117 164.258C140.297 163.649 141.934 166.912 139.29 169.06C135.324 172.277 128.566 174.729 124.175 177.624V185.864L137.108 178.564C139.955 177.946 141.998 181.68 139.382 183.458L124.175 191.939V200.18L137.543 192.879C139.697 192.935 141.333 194.861 140.214 196.861C138.633 199.682 126.902 203.959 124.175 206.9V214.486L136.664 207.637C140.889 207.038 141.98 210.025 138.67 212.679C134.686 215.869 128.289 217.897 124.175 221.215V229.235L137.117 221.943C140.131 221.307 142.026 224.543 139.558 226.571L124.184 235.531V243.55L137.127 236.259C140.205 235.512 141.897 239.273 139.392 241.144L124.184 249.625V265.24L190.735 226.857V211.896L178.246 218.754C174.53 219.584 172.903 215.961 175.981 213.878L190.744 205.176V197.156L177.802 204.448C175.01 205.01 173.208 201.839 175.399 199.737L190.735 190.861V182.841L177.802 190.151C174.835 190.372 173.069 187.358 175.528 185.238L190.744 176.766V168.526C187.065 169.447 180.603 175.337 177.377 175.826C174.807 176.213 173.318 172.36 175.546 170.931L190.753 161.806V154.219L178.264 161.068C174.557 162.082 172.921 158.294 175.99 156.201L190.753 147.499V139.48L177.811 146.771C174.696 147.426 173.337 144.199 175.408 142.061L190.753 133.193V125.173L177.811 132.465C174.853 133.046 173.143 129.469 175.537 127.57L190.753 119.099L190.726 119.062ZM52.4015 125.137C56.0808 126.105 62.4872 131.94 65.769 132.437C67.8397 132.751 69.1341 130.474 68.265 128.612C67.3128 126.547 54.8975 120.933 52.3923 119.062V125.137H52.4015ZM52.4108 133.378L52.836 139.673L65.0109 146.642C67.9784 147.545 69.9567 144.006 67.4237 142.052L52.42 133.378H52.4108ZM78.8221 135.194C78.3967 135.276 77.6203 135.617 77.4077 135.977C76.8068 137.811 77.0288 138.927 78.5264 140.079C79.8298 141.084 89.4624 146.614 90.7659 146.983C93.8812 147.859 95.5638 144.651 92.809 142.31C91.302 141.028 83.1855 136.355 81.2812 135.59C80.3289 135.212 79.9221 134.972 78.8221 135.194ZM52.4015 148.126L52.836 153.98C56.3859 155.381 61.5998 160.054 65.0017 160.939C67.9414 161.704 69.6886 158.856 67.8582 156.791L52.4015 148.136V148.126ZM77.7313 149.97C76.4556 151.251 77.2043 153.334 78.5264 154.385C81.8543 157.012 87.0958 158.883 90.6643 161.372C94.0754 162.285 95.647 158.662 92.5592 156.441C91.0432 155.353 82.076 150.044 80.6894 149.619C79.839 149.352 78.3784 149.324 77.7313 149.97ZM118.952 163.308L118.527 157.012C115.328 155.851 107.803 149.712 104.864 149.878C102.552 150.007 102.164 153.021 103.708 154.44L118.952 163.308ZM52.4015 162.442V168.516C56.2842 169.014 69.3374 181.458 68.1725 171.65L52.4015 162.442ZM77.7591 168.387L90.6735 175.679C93.3359 176.73 95.3696 173.623 93.5299 171.531C89.786 169.991 83.8418 164.82 80.2457 163.917C77.6111 163.262 76.1875 166.461 77.7683 168.387H77.7591ZM118.952 177.624L118.527 171.328L106.361 164.368L104.485 164.248C102.469 165.327 102.155 167.41 103.948 168.949C107.683 172.148 114.774 174.655 118.952 177.624ZM52.4015 176.757V182.832C56.275 183.873 61.9418 189.247 65.5379 189.911C68.4221 190.446 69.4482 187.441 67.7381 185.413L52.4015 176.757ZM93.5947 185.984C89.601 184.27 84.6739 179.946 80.7818 178.564C77.6203 177.448 76.0673 180.352 77.8236 182.85C81.3087 184.094 88.9263 190.556 92.2081 190.243C94.3803 190.04 94.6115 187.588 93.5947 185.984ZM118.952 185.864L105.585 178.564C103.246 178.564 102.386 180.371 102.932 182.537L118.952 191.93V185.855V185.864ZM52.4108 191.063L52.836 197.359L65.0109 204.328C66.1665 204.807 67.2481 204.245 68.0986 203.461C68.9769 201.996 68.6533 200.798 67.4237 199.737C63.6335 196.493 56.5893 194.142 52.42 191.063H52.4108ZM78.3784 192.879C76.779 193.359 76.6774 196.502 78.0918 197.332C81.8265 198.862 87.5025 203.858 91.1172 204.761C93.946 205.471 95.5546 202.18 92.5592 199.811C90.9508 198.539 82.751 193.69 80.9852 193.137C80.0609 192.842 79.3768 192.575 78.3692 192.879H78.3784ZM118.952 206.245C118.703 204.531 119.59 201.369 118.323 200.152C115.883 197.793 109.329 195.718 106.454 193.34C103.144 192.446 101.776 194.917 103.486 197.599L118.952 206.245ZM52.4108 205.379L52.836 211.675C56.4414 212.965 61.6182 217.74 65.0109 218.625C68.4036 219.51 69.8274 216.099 67.4145 214.053L52.4108 205.379ZM77.7313 207.656C76.252 209.131 77.3985 211.251 78.7851 212.246C82.2702 214.744 87.1144 216.514 90.6643 219.077C93.6039 219.98 95.721 216.606 92.8182 214.302C91.635 213.361 81.8635 207.665 80.6894 207.305C79.839 207.038 78.3784 207.01 77.7313 207.656ZM118.952 220.561L118.518 214.707L106.352 207.748C105.233 207.305 103.93 207.573 103.079 208.411C102.636 209.665 102.608 210.882 103.505 211.905C104.485 213.02 114.025 218.256 116.059 219.335C116.548 219.593 118.712 220.828 118.961 220.561H118.952ZM77.7404 226.091L90.6643 233.374C93.3265 234.424 95.3604 231.318 93.5207 229.226C90.0726 227.834 83.1485 222.036 79.913 221.501C77.3245 221.068 76.326 224.635 77.7404 226.091ZM118.952 235.309L118.527 229.014C115.282 227.926 107.766 221.713 104.864 221.879C102.552 222.008 102.164 225.022 103.708 226.442L118.952 235.309ZM118.952 243.55L105.585 236.25C102.858 236.277 102.146 238.683 103.403 240.84L118.952 249.625V243.55Z" fill="#261321"/>
<path d="M190.726 119.054L175.509 127.525C173.115 129.424 174.825 133 177.784 132.42L190.726 125.128V133.148L175.38 142.016C173.318 144.163 174.668 147.38 177.784 146.726L190.726 139.435V147.454L175.963 156.156C172.903 158.248 174.539 162.046 178.237 161.023L190.726 154.174V161.76L175.519 170.886C173.291 172.315 174.779 176.168 177.349 175.781C180.585 175.292 187.047 169.402 190.716 168.48V176.721L175.5 185.193C173.041 187.312 174.816 190.327 177.774 190.106L190.707 182.796V190.815L175.371 199.692C173.171 201.785 174.973 204.956 177.774 204.403L190.716 197.111V205.131L175.953 213.832C172.884 215.916 174.502 219.539 178.218 218.709L190.707 211.851V226.811L124.157 265.195V249.58L139.364 241.099C141.869 239.228 140.177 235.458 137.099 236.214L124.157 243.505V235.486L139.53 226.526C142.008 224.498 140.113 221.272 137.09 221.898L124.147 229.19V221.17C128.261 217.852 134.658 215.824 138.643 212.634C141.952 209.989 140.861 206.993 136.637 207.592L124.147 214.441V206.855C126.865 203.914 138.606 199.637 140.186 196.816C141.314 194.807 139.678 192.889 137.515 192.834L124.147 200.135V191.894L139.355 183.413C141.971 181.634 139.928 177.901 137.08 178.519L124.147 185.819V177.578C128.539 174.684 135.306 172.232 139.262 169.015C141.906 166.867 140.27 163.604 137.09 164.212L124.147 171.504V163.484C128.27 160.23 134.686 158.119 138.643 154.948C141.943 152.312 140.871 149.298 136.646 149.925L124.147 157.188V150.681L190.698 112.509V119.017L190.726 119.054ZM162.327 135.194L149.431 142.716C147.591 144.753 149.893 148.182 152.463 147.049C154.959 145.113 165.858 140.651 166.302 137.821C166.672 135.489 164.213 134.761 162.327 135.194ZM149.505 161.023C150.096 161.613 151.742 161.678 152.556 161.465C153.415 161.244 163.963 155.105 164.952 154.294C167.855 151.934 165.84 148.726 162.438 149.611C160.876 150.017 153.332 154.57 151.603 155.741C149.986 156.838 147.379 158.921 149.496 161.023H149.505ZM165.387 164.277C164.693 163.623 163.325 163.641 162.438 163.917C161.375 164.249 151.335 170.066 150.3 170.914C147.277 173.384 148.913 176.906 152.907 175.679C153.85 175.394 164.157 169.448 165.045 168.702C166.468 167.503 166.764 165.577 165.387 164.277ZM163.205 178.122C160.154 178.592 152.953 184.529 149.607 185.847C147.638 187.718 149.394 191.101 152.01 190.447C154.525 188.741 165.461 183.893 166.191 181.524C166.69 179.92 164.897 177.864 163.205 178.122ZM163.538 192.548C160.996 192.548 152.62 199.112 149.607 200.144C147.462 202.227 149.69 205.629 152.454 204.753C154.968 202.688 164.999 198.614 166.043 196.143C166.783 194.392 165.359 192.558 163.538 192.558V192.548ZM149.533 214.598C148.1 216.81 149.302 219.769 152.121 219.161L165.211 211.805C167.79 209.592 165.581 206.145 162.336 207.205L149.523 214.598H149.533ZM149.505 233.024C150.207 233.725 151.982 233.642 152.898 233.365C153.646 233.144 164.25 227.033 165.045 226.387C167.837 224.092 165.747 220.599 162.438 221.613C158.925 224.111 153.563 226.019 150.3 228.6C148.969 229.65 148.229 231.743 149.505 233.024Z" fill="#31FFC8"/>
<path d="M121.43 69.6875L187.676 108.007L121.754 145.957L120.385 145.625L55.4526 108.007L121.43 69.6875ZM120.58 75.3473L84.9979 95.8296C84.3413 96.3088 84.2306 96.8067 84.1288 97.5717C83.87 99.5812 83.8608 106.025 84.1288 108.025C84.3138 109.417 85.1086 109.961 86.1811 110.754L121.707 130.655L157.668 110.191C158.241 109.666 158.796 109.26 158.953 108.43C159.258 106.817 159.221 99.3324 158.981 97.5717C158.74 95.8112 157.409 95.3225 156.05 94.4285C147.684 88.8792 133.882 80.832 124.887 76.4904C123.307 75.7253 122.512 74.9694 120.57 75.3566L120.58 75.3473Z" fill="#31FFC8"/>
<path d="M77.7333 149.977C78.3804 149.332 79.841 149.36 80.6915 149.627C82.0781 150.06 91.0545 155.36 92.5613 156.448C95.6396 158.67 94.0775 162.292 90.6661 161.38C87.0978 158.891 81.8564 157.02 78.5282 154.392C77.1972 153.342 76.4575 151.249 77.7333 149.977Z" fill="#31FFC8"/>
<path d="M78.8214 135.188C79.9217 134.967 80.3376 135.206 81.2805 135.584C83.1848 136.349 91.3015 141.014 92.8083 142.304C95.5631 144.636 93.8713 147.844 90.7654 146.978C89.4617 146.609 79.8291 141.078 78.5256 140.074C77.028 138.921 76.8063 137.815 77.407 135.972C77.6198 135.612 78.3963 135.271 78.8214 135.188Z" fill="#31FFC8"/>
<path d="M78.3795 192.871C79.3871 192.567 80.0712 192.834 80.9957 193.129C82.7521 193.682 90.9611 198.531 92.5697 199.803C95.5649 202.172 93.9563 205.454 91.1275 204.753C87.513 203.85 81.8276 198.853 78.1021 197.323C76.6877 196.494 76.7895 193.35 78.3887 192.871H78.3795Z" fill="#31FFC8"/>
<path d="M77.7416 226.099C76.3272 224.634 77.3254 221.075 79.9138 221.509C83.1494 222.043 90.0737 227.842 93.5218 229.233C95.3705 231.335 93.3276 234.432 90.6652 233.381L77.7416 226.099Z" fill="#31FFC8"/>
<path d="M93.5983 185.985C94.6154 187.589 94.3843 190.031 92.2117 190.244C88.93 190.557 81.3127 184.095 77.8275 182.851C76.071 180.362 77.6242 177.449 80.7857 178.564C84.6776 179.938 89.6049 184.261 93.5983 185.985Z" fill="#31FFC8"/>
<path d="M77.7611 168.406C76.1803 166.479 77.6131 163.281 80.2386 163.935C83.8347 164.829 89.7697 170 93.5229 171.549C95.3717 173.651 93.3288 176.748 90.6663 175.697L77.7519 168.406H77.7611Z" fill="#31FFC8"/>
<path d="M77.7333 207.664C78.3804 207.019 79.841 207.047 80.6915 207.314C81.8655 207.674 91.6462 213.379 92.8202 214.31C95.7228 216.615 93.6059 219.989 90.6661 219.085C87.1164 216.523 82.2723 214.753 78.7872 212.255C77.3911 211.25 76.2541 209.139 77.7333 207.664Z" fill="#31FFC8"/>
<path d="M118.953 185.871V191.945L102.933 182.552C102.387 180.386 103.247 178.57 105.586 178.579L118.953 185.88V185.871Z" fill="#31FFC8"/>
<path d="M118.953 235.301L103.709 226.433C102.165 225.013 102.554 221.999 104.865 221.87C107.767 221.713 115.283 227.917 118.528 229.005L118.953 235.301Z" fill="#31FFC8"/>
<path d="M118.954 177.627C114.775 174.668 107.676 172.161 103.95 168.953C102.157 167.413 102.471 165.33 104.486 164.252L106.363 164.372L118.529 171.331L118.954 177.627Z" fill="#31FFC8"/>
<path d="M118.951 220.564C118.711 220.831 116.539 219.596 116.049 219.337C114.015 218.259 104.475 213.023 103.495 211.908C102.598 210.894 102.635 209.677 103.07 208.414C103.92 207.576 105.224 207.308 106.342 207.751L118.508 214.71L118.942 220.564H118.951Z" fill="#31FFC8"/>
<path d="M52.403 176.768L67.7394 185.424C69.4496 187.452 68.4235 190.457 65.5393 189.922C61.9432 189.258 56.2764 183.884 52.403 182.843V176.768Z" fill="#31FFC8"/>
<path d="M52.403 162.449L68.1739 171.658C69.3388 181.466 56.2764 169.013 52.403 168.524V162.449Z" fill="#31FFC8"/>
<path d="M52.4119 205.388L67.4156 214.062C69.819 216.108 68.266 219.491 65.012 218.634C61.758 217.776 56.4424 212.974 52.8371 211.683L52.4119 205.388Z" fill="#31FFC8"/>
<path d="M118.953 163.295L103.709 154.427C102.165 153.008 102.554 149.994 104.865 149.865C107.804 149.699 115.329 155.838 118.528 156.999L118.953 163.295Z" fill="#31FFC8"/>
<path d="M52.4122 133.373L67.4159 142.047C69.9581 144.001 67.9705 147.55 65.0031 146.637L52.8282 139.669L52.403 133.373H52.4122Z" fill="#31FFC8"/>
<path d="M52.403 125.138V119.063C54.8989 120.934 67.3142 126.548 68.2756 128.613C69.1446 130.484 67.8504 132.752 65.7796 132.438C62.4979 131.941 56.0915 126.106 52.4122 125.138H52.403Z" fill="#31FFC8"/>
<path d="M52.4122 191.051C56.5907 194.13 63.6257 196.471 67.4159 199.725C68.6453 200.785 68.9688 201.983 68.0907 203.449C67.2402 204.242 66.1586 204.795 65.0031 204.316L52.8282 197.347L52.403 191.051H52.4122Z" fill="#31FFC8"/>
<path d="M118.952 206.25L103.486 197.603C101.767 194.921 103.144 192.45 106.454 193.344C109.329 195.723 115.883 197.787 118.323 200.156C119.59 201.382 118.702 204.535 118.952 206.25Z" fill="#31FFC8"/>
<path d="M52.403 148.122L67.8596 156.778C69.6899 158.852 67.952 161.7 65.0031 160.926C61.6011 160.041 56.3873 155.368 52.8374 153.966L52.403 148.113V148.122Z" fill="#31FFC8"/>
<path d="M118.953 243.558V249.633L103.404 240.848C102.147 238.691 102.859 236.285 105.586 236.257L118.953 243.558Z" fill="#31FFC8"/>
<path d="M149.533 214.61L162.345 207.217C165.581 206.157 167.799 209.604 165.22 211.817L152.13 219.173C149.301 219.772 148.099 216.813 149.542 214.61H149.533Z" fill="#261321"/>
<path d="M165.389 164.29C166.757 165.59 166.461 167.517 165.047 168.715C164.159 169.462 153.852 175.398 152.909 175.693C148.915 176.919 147.288 173.407 150.302 170.927C151.328 170.079 161.377 164.263 162.44 163.931C163.328 163.654 164.696 163.636 165.389 164.29Z" fill="#261321"/>
<path d="M163.208 178.135C164.899 177.877 166.693 179.933 166.194 181.537C165.463 183.906 154.527 188.754 152.013 190.46C149.396 191.114 147.64 187.731 149.609 185.86C152.956 184.551 160.148 178.605 163.208 178.135Z" fill="#261321"/>
<path d="M149.507 233.046C148.231 231.774 148.98 229.672 150.302 228.622C153.565 226.041 158.936 224.123 162.44 221.634C165.749 220.621 167.838 224.123 165.047 226.409C164.252 227.054 153.658 233.166 152.9 233.387C151.975 233.664 150.2 233.747 149.507 233.046Z" fill="#261321"/>
<path d="M162.327 135.204C164.213 134.771 166.663 135.499 166.302 137.831C165.859 140.652 154.96 145.122 152.464 147.058C149.894 148.183 147.592 144.763 149.431 142.726L162.327 135.204Z" fill="#261321"/>
<path d="M149.505 161.038C147.388 158.927 149.986 156.843 151.613 155.756C153.341 154.594 160.885 150.031 162.447 149.626C165.84 148.741 167.855 151.958 164.962 154.308C163.963 155.12 153.425 161.259 152.565 161.48C151.705 161.701 150.106 161.628 149.514 161.038H149.505Z" fill="#261321"/>
<path d="M163.538 192.557C165.36 192.557 166.783 194.392 166.044 196.143C164.999 198.623 154.96 202.688 152.454 204.753C149.69 205.629 147.462 202.236 149.607 200.144C152.63 199.111 160.996 192.548 163.538 192.548V192.557Z" fill="#261321"/>
<path d="M120.579 75.3477C122.52 74.9698 123.315 75.7164 124.896 76.4815C133.891 80.8232 147.693 88.8796 156.059 94.4196C157.418 95.323 158.758 95.7931 158.989 97.563C159.22 99.3329 159.267 106.799 158.962 108.422C158.804 109.242 158.25 109.657 157.677 110.182L121.716 130.646L86.1894 110.745C85.1172 109.952 84.3221 109.417 84.1371 108.016C83.8692 106.016 83.8783 99.5725 84.1371 97.563C84.2389 96.8071 84.3405 96.3001 85.0062 95.8208L120.588 75.3385L120.579 75.3477ZM150.706 97.3878L121.716 80.9891L92.4202 97.3878L121.42 114.662L150.697 97.3878H150.706ZM153.748 102.587L125.053 118.866C123.666 119.76 124.258 121.539 124.175 122.968L153.655 106.403L153.748 102.587Z" fill="#261321"/>
<path d="M150.708 97.4016L121.431 114.676L92.4222 97.3924L121.718 80.9936L150.708 97.4016Z" fill="#31FFC8"/>
<path d="M153.75 102.602L153.657 106.418L124.177 122.982C124.26 121.544 123.668 119.766 125.055 118.88L153.75 102.602Z" fill="#31FFC8"/>
<g filter="url(#filter0_d_3_348)">
<path d="M13.7407 78.5271C16.1722 77.1199 18.297 76.46 20.1152 76.5483C21.9552 76.5984 23.3681 77.3519 24.3539 78.8089C25.3395 80.2659 25.8324 82.2998 25.8324 84.9101C25.8324 87.4954 25.3287 90.0934 24.321 92.7042C23.3352 95.3024 21.9224 97.7169 20.0823 99.9478C18.2642 102.141 16.1503 103.934 13.7407 105.329L4.5733 110.636V83.8336L13.7407 78.5271ZM13.2478 99.0377C15.1317 97.9471 16.6103 96.4957 17.6837 94.6832C18.757 92.8708 19.2937 90.8746 19.2937 88.695C19.2937 86.4899 18.757 85.1025 17.6837 84.5327C16.6103 83.9373 15.1317 84.1849 13.2478 85.2754L11.0135 86.5687V100.331L13.2478 99.0377ZM43.3902 83.7955L35.1757 88.5502L33.9271 93.6448L27.1583 97.5628L35.6029 65.8729L43.0287 61.5745L51.4404 83.5076L44.6388 87.4447L43.3902 83.7955ZM41.7801 79.0246L39.2829 71.8022L36.8185 81.8966L41.7801 79.0246ZM80.5816 39.8378V66.64L74.1415 70.3676V55.5791L69.7714 72.8973L64.3826 76.0164L59.9797 63.6622V78.5649L53.5394 82.2927V55.4907L61.3268 50.983L67.1428 65.0286L72.8272 44.3265L80.5816 39.8378ZM98.9024 51.6634L90.6878 56.4183L89.4392 61.513L82.6704 65.4308L91.115 33.7409L98.5409 29.4426L106.953 51.3758L100.151 55.3127L98.9024 51.6634ZM97.2923 46.8928L94.7951 39.6704L92.3307 49.7647L97.2923 46.8928ZM122.753 42.2299L115.492 34.6858V46.433L109.052 50.1609V23.3587L115.492 19.631V31.1881L122.688 15.4658L130.114 11.1675L121.603 29.0952L130.541 37.7222L122.753 42.2299Z" fill="#31FFC8"/>
</g>
<defs>
<filter id="filter0_d_3_348" x="2.58476" y="6.4917" width="129.945" height="104.144" filterUnits="userSpaceOnUse" color-interpolation-filters="sRGB">
<feFlood flood-opacity="0" result="BackgroundImageFix"/>
<feColorMatrix in="SourceAlpha" type="matrix" values="0 0 0 0 0 0 0 0 0 0 0 0 0 0 0 0 0 0 127 0" result="hardAlpha"/>
<feOffset dy="-2.68722"/>
<feGaussianBlur stdDeviation="0.994272"/>
<feComposite in2="hardAlpha" operator="out"/>
<feColorMatrix type="matrix" values="0 0 0 0 1 0 0 0 0 1 0 0 0 0 1 0 0 0 0.34 0"/>
<feBlend mode="normal" in2="BackgroundImageFix" result="effect1_dropShadow_3_348"/>
<feBlend mode="normal" in="SourceGraphic" in2="effect1_dropShadow_3_348" result="shape"/>
</filter>
</defs>
</svg>
