<svg width="197" height="281" viewBox="0 0 197 281" fill="none" xmlns="http://www.w3.org/2000/svg">
<g filter="url(#filter0_d_3_309)">
<path d="M11.2876 86.8666V91.6083L19.3204 86.967V93.1107L11.2876 97.752V102.989L20.3916 97.7284V104.202L4.29001 113.505V84.436L20.3916 75.1329V81.6064L11.2876 86.8666ZM53.2319 56.1585V85.2275L46.2343 89.2704V73.231L41.486 92.014L35.6309 95.3969L30.8469 81.9979V98.1611L23.8493 102.204V73.1351L32.3106 68.2463L38.6299 83.4798L44.8063 61.0266L53.2319 56.1585ZM73.1382 68.9844L64.2127 74.1412L62.8561 79.6668L55.5016 83.9162L64.6768 49.5458L72.7455 44.884L81.8851 68.6723L74.4949 72.9422L73.1382 68.9844ZM71.3888 63.8101L68.6755 55.9769L65.9979 66.9249L71.3888 63.8101ZM100.089 53.4128L91.1635 58.5697L89.8068 64.0953L82.4522 68.3447L91.6276 33.9744L99.6962 29.3125L108.836 53.1008L101.446 57.3706L100.089 53.4128ZM98.3395 48.2387L95.6262 40.4054L92.9485 51.3534L98.3395 48.2387ZM123.863 44.4189L118.864 36.5863L118.114 37.0195V47.74L111.117 51.7829V22.714L122.148 16.3401C124.172 15.1712 125.885 14.5933 127.289 14.6066C128.694 14.5924 129.753 15.0937 130.467 16.1106C131.181 17.0999 131.538 18.4742 131.538 20.2335C131.538 22.2127 131.062 24.2333 130.11 26.2951C129.182 28.3159 127.813 30.1649 126.004 31.8423L131.681 39.9014L123.863 44.4189ZM118.114 31.4943L121.578 29.4934C122.529 28.9433 123.243 28.2696 123.719 27.4723C124.196 26.6751 124.433 25.7816 124.433 24.792C124.433 23.8574 124.183 23.2734 123.684 23.0398C123.207 22.7652 122.505 22.896 121.578 23.4322L118.114 25.4332V31.4943Z" fill="#FF6DD2"/>
</g>
<g clip-path="url(#clip0_3_309)">
<path d="M120.928 70.8532L122.535 70.779L196.426 113.531V237.866L122.108 280.608L119.006 279.376L47.2781 237.55L47.4081 113.513L120.928 70.8532ZM121.792 76.5089L55.5068 115.052L120.733 152.89L122.108 153.224L188.337 115.052L121.792 76.5089ZM191.411 126.169V119.623L124.55 158.017V164.563L137.107 157.257C141.351 156.626 142.429 159.658 139.113 162.31C135.129 165.499 128.693 167.623 124.55 170.896V178.962L137.553 171.628C140.748 171.016 142.392 174.298 139.735 176.459C135.751 179.694 128.962 182.161 124.55 185.072V193.361L137.544 186.017C140.404 185.396 142.457 189.152 139.828 190.941L124.55 199.472V207.761L137.98 200.417C140.144 200.473 141.788 202.411 140.664 204.422C139.076 207.259 127.29 211.562 124.55 214.519V222.15L137.098 215.261C141.342 214.658 142.438 217.662 139.113 220.333C135.11 223.541 128.683 225.58 124.55 228.919V236.985L137.553 229.65C140.581 229.011 142.484 232.265 140.005 234.305L124.56 243.317V251.383L137.562 244.05C140.655 243.298 142.354 247.082 139.838 248.963L124.56 257.494V273.2L191.421 234.593V219.545L178.873 226.442C175.14 227.277 173.504 223.633 176.598 221.538L191.43 212.785V204.718L178.427 212.053C175.622 212.618 173.811 209.429 176.013 207.315L191.421 198.386V190.32L178.427 197.672C175.446 197.895 173.672 194.863 176.142 192.73L191.43 184.21V175.921C187.733 176.848 181.241 182.773 178 183.264C175.418 183.653 173.922 179.778 176.162 178.341L191.439 169.162V161.531L178.892 168.42C175.167 169.44 173.524 165.629 176.607 163.524L191.439 154.772V146.706L178.436 154.039C175.307 154.698 173.942 151.453 176.022 149.302L191.439 140.382V132.316L178.436 139.65C175.464 140.234 173.746 136.636 176.151 134.726L191.439 126.206L191.411 126.169ZM52.4419 132.279C56.1384 133.252 62.5746 139.121 65.8716 139.622C67.9521 139.937 69.2524 137.647 68.3793 135.774C67.4227 133.697 54.9496 128.051 52.4326 126.169V132.279H52.4419ZM52.4512 140.568L52.8785 146.9L65.1101 153.91C68.0914 154.818 70.079 151.258 67.5341 149.292L52.4605 140.568H52.4512ZM78.9857 142.394C78.5584 142.478 77.7783 142.821 77.5647 143.182C76.961 145.027 77.1839 146.149 78.6884 147.308C79.998 148.319 89.6757 153.882 90.9851 154.253C94.115 155.133 95.8053 151.907 93.0377 149.552C91.5238 148.263 83.3694 143.562 81.4562 142.793C80.4996 142.413 80.0909 142.172 78.9857 142.394ZM52.4419 155.402L52.8785 161.29C56.4449 162.699 61.683 167.4 65.1008 168.29C68.0542 169.06 69.8096 166.195 67.9707 164.118L52.4419 155.412V155.402ZM77.8898 157.257C76.608 158.546 77.3604 160.641 78.6884 161.698C82.0319 164.34 87.298 166.223 90.883 168.726C94.3101 169.644 95.8889 166 92.787 163.766C91.2638 162.671 82.2549 157.331 80.8617 156.904C80.0073 156.635 78.5399 156.608 77.8898 157.257ZM119.303 170.673L118.876 164.34C115.662 163.172 108.102 156.997 105.149 157.164C102.827 157.294 102.437 160.326 103.988 161.754L119.303 170.673ZM52.4419 169.802V175.912C56.3427 176.412 69.4567 188.929 68.2865 179.064L52.4419 169.802ZM77.9176 175.782L90.8922 183.116C93.5671 184.173 95.6104 181.048 93.7621 178.943C90.0007 177.395 84.0289 172.194 80.416 171.285C77.7691 170.627 76.3388 173.844 77.9269 175.782H77.9176ZM119.303 185.072L118.876 178.739L106.653 171.739L104.768 171.619C102.743 172.703 102.427 174.799 104.229 176.347C107.981 179.565 115.105 182.087 119.303 185.072ZM52.4419 184.2V190.311C56.3334 191.358 62.0267 196.764 65.6395 197.432C68.5372 197.969 69.5681 194.946 67.8499 192.907L52.4419 184.2ZM93.8271 193.481C89.8149 191.757 84.8647 187.409 80.9546 186.017C77.7783 184.896 76.218 187.817 77.9827 190.329C81.484 191.581 89.1369 198.08 92.434 197.765C94.6166 197.561 94.8487 195.095 93.8271 193.481ZM119.303 193.361L105.873 186.017C103.523 186.017 102.66 187.835 103.207 190.013L119.303 199.461V193.352V193.361ZM52.4512 198.59L52.8785 204.922L65.1101 211.932C66.271 212.414 67.3577 211.849 68.2122 211.06C69.0944 209.586 68.7694 208.381 67.5341 207.315C63.7263 204.052 56.6492 201.687 52.4605 198.59H52.4512ZM78.5399 200.417C76.9331 200.899 76.831 204.061 78.252 204.895C82.0041 206.434 87.7067 211.46 91.3381 212.368C94.1801 213.082 95.7961 209.772 92.787 207.389C91.1709 206.11 82.9329 201.233 81.159 200.677C80.2302 200.38 79.543 200.111 78.5306 200.417H78.5399ZM119.303 213.861C119.052 212.137 119.944 208.956 118.671 207.732C116.219 205.359 109.635 203.273 106.746 200.88C103.421 199.981 102.047 202.466 103.765 205.164L119.303 213.861ZM52.4512 212.989L52.8785 219.322C56.5006 220.621 61.7015 225.423 65.1101 226.313C68.5187 227.203 69.949 223.773 67.5248 221.714L52.4512 212.989ZM77.8898 215.28C76.4037 216.763 77.5553 218.896 78.9486 219.897C82.4499 222.41 87.3166 224.189 90.883 226.768C93.8365 227.676 95.9633 224.282 93.047 221.964C91.8582 221.019 82.0412 215.289 80.8617 214.927C80.0073 214.658 78.5399 214.63 77.8898 215.28ZM119.303 228.26L118.866 222.373L106.644 215.373C105.52 214.927 104.211 215.196 103.356 216.04C102.91 217.301 102.882 218.525 103.783 219.554C104.768 220.675 114.353 225.942 116.396 227.026C116.888 227.286 119.061 228.529 119.312 228.26H119.303ZM77.8991 233.823L90.883 241.147C93.5578 242.205 95.6011 239.08 93.7529 236.975C90.2886 235.575 83.3323 229.743 80.0816 229.206C77.4811 228.77 76.478 232.358 77.8991 233.823ZM119.303 243.095L118.876 236.762C115.616 235.668 108.065 229.419 105.149 229.586C102.827 229.716 102.437 232.747 103.988 234.176L119.303 243.095ZM119.303 251.383L105.873 244.041C103.133 244.068 102.418 246.488 103.681 248.658L119.303 257.494V251.383Z" fill="#261321"/>
<path d="M191.411 126.169L176.124 134.69C173.718 136.6 175.436 140.197 178.409 139.613L191.411 132.279V140.346L175.993 149.265C173.922 151.425 175.278 154.661 178.409 154.003L191.411 146.669V154.735L176.578 163.488C173.504 165.593 175.148 169.413 178.863 168.383L191.411 161.494V169.125L176.133 178.304C173.895 179.741 175.39 183.617 177.971 183.228C181.223 182.736 187.715 176.811 191.402 175.884V184.173L176.115 192.693C173.644 194.826 175.427 197.858 178.398 197.636L191.392 190.284V198.349L175.984 207.278C173.773 209.384 175.584 212.572 178.398 212.017L191.402 204.682V212.749L176.569 221.501C173.486 223.597 175.111 227.241 178.845 226.406L191.392 219.508V234.556L124.531 273.163V257.457L139.809 248.927C142.326 247.045 140.627 243.253 137.534 244.013L124.531 251.347V243.281L139.976 234.269C142.465 232.229 140.562 228.984 137.525 229.614L124.522 236.949V228.882C128.655 225.544 135.082 223.505 139.085 220.296C142.41 217.635 141.314 214.621 137.069 215.225L124.522 222.113V214.483C127.252 211.525 139.048 207.222 140.636 204.385C141.769 202.365 140.125 200.436 137.952 200.38L124.522 207.724V199.435L139.8 190.904C142.428 189.115 140.376 185.36 137.515 185.982L124.522 193.325V185.036C128.934 182.124 135.732 179.658 139.707 176.422C142.363 174.262 140.719 170.98 137.525 171.591L124.522 178.925V170.859C128.664 167.586 135.11 165.463 139.085 162.273C142.401 159.622 141.323 156.59 137.079 157.22L124.522 164.526V157.98L191.383 119.586V126.132L191.411 126.169ZM162.88 142.404L149.923 149.97C148.075 152.019 150.388 155.468 152.97 154.327C155.477 152.38 166.427 147.893 166.873 145.046C167.245 142.701 164.774 141.968 162.88 142.404ZM149.998 168.383C150.592 168.977 152.245 169.042 153.063 168.828C153.926 168.606 164.524 162.431 165.517 161.615C168.434 159.241 166.409 156.015 162.991 156.905C161.421 157.313 153.843 161.893 152.106 163.071C150.481 164.174 147.862 166.269 149.988 168.383H149.998ZM165.954 171.656C165.257 170.998 163.882 171.017 162.991 171.295C161.923 171.628 151.837 177.479 150.796 178.332C147.759 180.817 149.403 184.359 153.415 183.125C154.363 182.838 164.718 176.858 165.611 176.107C167.04 174.901 167.338 172.964 165.954 171.656ZM163.762 185.582C160.697 186.055 153.462 192.027 150.1 193.352C148.122 195.234 149.886 198.637 152.515 197.979C155.041 196.264 166.027 191.387 166.762 189.004C167.263 187.391 165.462 185.323 163.762 185.582ZM164.096 200.092C161.542 200.092 153.128 206.694 150.1 207.733C147.945 209.828 150.183 213.249 152.96 212.368C155.487 210.292 165.564 206.194 166.613 203.708C167.356 201.947 165.926 200.102 164.096 200.102V200.092ZM150.026 222.271C148.586 224.496 149.793 227.472 152.626 226.86L165.777 219.461C168.369 217.236 166.149 213.769 162.889 214.835L150.016 222.271H150.026ZM149.998 240.805C150.703 241.509 152.487 241.427 153.406 241.149C154.158 240.925 164.811 234.778 165.611 234.13C168.414 231.821 166.316 228.307 162.991 229.326C159.462 231.839 154.075 233.759 150.796 236.354C149.459 237.411 148.716 239.516 149.998 240.805Z" fill="#FF6DD2"/>
<path d="M121.792 76.5102L188.347 115.053L122.117 153.225L120.742 152.891L55.5069 115.053L121.792 76.5102ZM120.937 82.2031L85.1899 102.805C84.5304 103.287 84.4189 103.788 84.3168 104.557C84.0568 106.579 84.0475 113.06 84.3168 115.071C84.5026 116.472 85.3013 117.019 86.3786 117.816L122.071 137.834L158.199 117.25C158.775 116.722 159.332 116.314 159.49 115.479C159.797 113.857 159.759 106.328 159.518 104.557C159.276 102.786 157.939 102.295 156.574 101.396C148.168 95.814 134.302 87.7197 125.266 83.3528C123.677 82.5832 122.879 81.8229 120.928 82.2123L120.937 82.2031Z" fill="#FF6DD2"/>
<path d="M77.8909 157.256C78.541 156.607 80.0084 156.635 80.863 156.904C82.2561 157.34 91.2742 162.671 92.7881 163.765C95.8809 166 94.3113 169.643 90.8842 168.725C87.2992 166.222 82.0332 164.34 78.6897 161.697C77.3523 160.641 76.6093 158.536 77.8909 157.256Z" fill="#FF6DD2"/>
<path d="M78.9852 142.395C80.0904 142.172 80.5083 142.413 81.4556 142.794C83.3689 143.563 91.5233 148.255 93.0373 149.553C95.8049 151.898 94.1053 155.125 90.9847 154.254C89.6751 153.883 79.9976 148.32 78.688 147.309C77.1835 146.15 76.9605 145.037 77.5642 143.183C77.7778 142.821 78.558 142.478 78.9852 142.395Z" fill="#FF6DD2"/>
<path d="M78.541 200.414C79.5534 200.108 80.2407 200.378 81.1695 200.674C82.9341 201.231 91.1814 206.108 92.7974 207.387C95.8066 209.769 94.1905 213.07 91.3485 212.366C87.7171 211.458 82.0054 206.432 78.2625 204.893C76.8414 204.059 76.9436 200.896 78.5504 200.414H78.541Z" fill="#FF6DD2"/>
<path d="M77.9002 233.822C76.4792 232.348 77.4823 228.769 80.0828 229.205C83.3334 229.742 90.2897 235.574 93.754 236.975C95.6115 239.088 93.559 242.203 90.8841 241.146L77.9002 233.822Z" fill="#FF6DD2"/>
<path d="M93.8276 193.48C94.8493 195.094 94.6171 197.551 92.4346 197.764C89.1374 198.079 81.4846 191.58 77.9831 190.328C76.2186 187.825 77.7788 184.895 80.9552 186.017C84.8652 187.399 89.8155 191.746 93.8276 193.48Z" fill="#FF6DD2"/>
<path d="M77.9188 175.782C76.3305 173.845 77.7701 170.627 80.4078 171.286C84.0206 172.185 89.9832 177.386 93.754 178.944C95.6114 181.058 93.559 184.173 90.8841 183.116L77.9095 175.782H77.9188Z" fill="#FF6DD2"/>
<path d="M77.8912 215.28C78.5414 214.63 80.0088 214.659 80.8632 214.927C82.0427 215.289 91.8689 221.028 93.0485 221.965C95.9648 224.282 93.8378 227.676 90.8844 226.768C87.3181 224.191 82.4514 222.41 78.9499 219.897C77.5475 218.886 76.4052 216.763 77.8912 215.28Z" fill="#FF6DD2"/>
<path d="M119.304 193.359V199.469L103.209 190.021C102.661 187.843 103.525 186.016 105.875 186.025L119.304 193.368V193.359Z" fill="#FF6DD2"/>
<path d="M119.303 243.096L103.988 234.177C102.437 232.749 102.827 229.717 105.149 229.587C108.065 229.429 115.616 235.669 118.876 236.763L119.303 243.096Z" fill="#FF6DD2"/>
<path d="M119.304 185.068C115.106 182.092 107.973 179.57 104.23 176.343C102.428 174.795 102.744 172.699 104.769 171.614L106.654 171.735L118.877 178.735L119.304 185.068Z" fill="#FF6DD2"/>
<path d="M119.301 228.26C119.06 228.529 116.877 227.286 116.385 227.028C114.342 225.942 104.757 220.676 103.773 219.554C102.872 218.534 102.909 217.31 103.345 216.04C104.2 215.196 105.51 214.927 106.633 215.373L118.856 222.373L119.292 228.26H119.301Z" fill="#FF6DD2"/>
<path d="M52.4411 184.2L67.8491 192.907C69.5673 194.946 68.5364 197.969 65.6387 197.431C62.0258 196.763 56.3325 191.358 52.4411 190.31V184.2Z" fill="#FF6DD2"/>
<path d="M52.4411 169.802L68.2856 179.065C69.4558 188.93 56.3325 176.404 52.4411 175.913V169.802Z" fill="#FF6DD2"/>
<path d="M52.4523 212.99L67.5259 221.714C69.9407 223.774 68.3804 227.176 65.1111 226.314C61.842 225.452 56.5016 220.621 52.8795 219.323L52.4523 212.99Z" fill="#FF6DD2"/>
<path d="M119.303 170.671L103.988 161.752C102.437 160.324 102.827 157.292 105.149 157.162C108.102 156.995 115.662 163.17 118.876 164.339L119.303 170.671Z" fill="#FF6DD2"/>
<path d="M52.4504 140.569L67.524 149.294C70.078 151.26 68.0812 154.829 65.1 153.911L52.8683 146.902L52.4411 140.569H52.4504Z" fill="#FF6DD2"/>
<path d="M52.4411 132.282V126.172C54.9487 128.054 67.4219 133.7 68.3877 135.777C69.2608 137.659 67.9605 139.94 65.8801 139.625C62.5831 139.124 56.1468 133.256 52.4504 132.282H52.4411Z" fill="#FF6DD2"/>
<path d="M52.4504 198.593C56.6483 201.689 63.7161 204.045 67.524 207.317C68.7593 208.384 69.0843 209.589 68.202 211.064C67.3475 211.861 66.2609 212.416 65.1 211.935L52.8683 204.926L52.4411 198.593H52.4504Z" fill="#FF6DD2"/>
<path d="M119.303 213.86L103.765 205.162C102.038 202.464 103.422 199.979 106.747 200.878C109.635 203.271 116.22 205.347 118.672 207.731C119.944 208.963 119.053 212.135 119.303 213.86Z" fill="#FF6DD2"/>
<path d="M52.4411 155.401L67.9698 164.107C69.8088 166.193 68.0627 169.058 65.1 168.279C61.6822 167.389 56.444 162.689 52.8776 161.279L52.4411 155.392V155.401Z" fill="#FF6DD2"/>
<path d="M119.303 251.383V257.493L103.681 248.658C102.418 246.487 103.133 244.068 105.873 244.039L119.303 251.383Z" fill="#FF6DD2"/>
<path d="M150.025 222.271L162.897 214.835C166.148 213.769 168.377 217.237 165.786 219.461L152.635 226.86C149.793 227.464 148.585 224.487 150.034 222.271H150.025Z" fill="#261321"/>
<path d="M165.955 171.653C167.33 172.96 167.033 174.898 165.612 176.103C164.721 176.854 154.365 182.825 153.417 183.122C149.405 184.355 147.771 180.823 150.798 178.329C151.829 177.476 161.925 171.625 162.992 171.291C163.884 171.013 165.259 170.995 165.955 171.653Z" fill="#261321"/>
<path d="M163.763 185.582C165.463 185.322 167.264 187.391 166.763 189.003C166.029 191.387 155.042 196.264 152.516 197.978C149.887 198.637 148.123 195.234 150.101 193.352C153.463 192.035 160.689 186.055 163.763 185.582Z" fill="#261321"/>
<path d="M149.998 240.805C148.716 239.526 149.468 237.411 150.796 236.354C154.075 233.759 159.471 231.83 162.991 229.326C166.316 228.307 168.414 231.83 165.609 234.13C164.811 234.778 154.168 240.925 153.406 241.149C152.477 241.427 150.694 241.509 149.998 240.805Z" fill="#261321"/>
<path d="M162.88 142.402C164.774 141.966 167.236 142.699 166.873 145.044C166.427 147.881 155.477 152.378 152.97 154.325C150.388 155.457 148.075 152.017 149.923 149.968L162.88 142.402Z" fill="#261321"/>
<path d="M149.998 168.381C147.871 166.258 150.481 164.163 152.115 163.068C153.852 161.9 161.431 157.311 163 156.903C166.409 156.013 168.434 159.249 165.527 161.613C164.524 162.429 153.936 168.604 153.072 168.826C152.208 169.049 150.601 168.975 150.007 168.381H149.998Z" fill="#261321"/>
<path d="M164.096 200.092C165.926 200.092 167.356 201.936 166.613 203.699C165.564 206.193 155.478 210.281 152.961 212.358C150.184 213.239 147.945 209.827 150.1 207.723C153.137 206.684 161.542 200.082 164.096 200.082V200.092Z" fill="#261321"/>
<path d="M120.937 82.2001C122.888 81.8199 123.686 82.571 125.274 83.3405C134.311 87.7076 148.177 95.8111 156.583 101.383C157.948 102.292 159.295 102.765 159.527 104.545C159.759 106.325 159.805 113.835 159.499 115.467C159.341 116.292 158.784 116.71 158.208 117.238L122.08 137.821L86.3876 117.804C85.3103 117.006 84.5115 116.469 84.3257 115.059C84.0564 113.047 84.0657 106.566 84.3257 104.545C84.4279 103.785 84.53 103.275 85.1988 102.793L120.946 82.1908L120.937 82.2001ZM151.205 104.369L122.08 87.8745L92.6474 104.369L121.782 121.744L151.196 104.369H151.205ZM154.261 109.598L125.432 125.972C124.039 126.872 124.634 128.661 124.55 130.098L154.168 113.437L154.261 109.598Z" fill="#261321"/>
<path d="M151.206 104.369L121.792 121.744L92.6479 104.36L122.08 87.8652L151.206 104.369Z" fill="#FF6DD2"/>
<path d="M154.263 109.6L154.171 113.439L124.553 130.1C124.636 128.653 124.042 126.864 125.435 125.974L154.263 109.6Z" fill="#FF6DD2"/>
</g>
<defs>
<filter id="filter0_d_3_309" x="0.590008" y="5.90634" width="134.791" height="107.599" filterUnits="userSpaceOnUse" color-interpolation-filters="sRGB">
<feFlood flood-opacity="0" result="BackgroundImageFix"/>
<feColorMatrix in="SourceAlpha" type="matrix" values="0 0 0 0 0 0 0 0 0 0 0 0 0 0 0 0 0 0 127 0" result="hardAlpha"/>
<feOffset dy="-5"/>
<feGaussianBlur stdDeviation="1.85"/>
<feComposite in2="hardAlpha" operator="out"/>
<feColorMatrix type="matrix" values="0 0 0 0 1 0 0 0 0 1 0 0 0 0 1 0 0 0 0.34 0"/>
<feBlend mode="normal" in2="BackgroundImageFix" result="effect1_dropShadow_3_309"/>
<feBlend mode="normal" in="SourceGraphic" in2="effect1_dropShadow_3_309" result="shape"/>
</filter>
<clipPath id="clip0_3_309">
<rect width="150.041" height="210.744" fill="white" transform="translate(46.9593 69.8663)"/>
</clipPath>
</defs>
</svg>
