<svg width="193" height="264" viewBox="0 0 193 264" fill="none" xmlns="http://www.w3.org/2000/svg">
<path d="M115.612 51.8395L117.216 51.7654L190.971 94.4817V218.712L116.789 261.419L113.693 260.187L42.0979 218.397L42.2277 94.4633L115.612 51.8395ZM116.474 57.4906L50.3114 96.001L115.417 133.807L116.789 134.141L182.896 96.001L116.474 57.4906ZM185.965 107.109V100.568L119.227 138.931V145.471L131.761 138.171C135.998 137.541 137.073 140.57 133.763 143.22C129.786 146.407 123.362 148.528 119.227 151.798V159.858L132.206 152.53C135.395 151.919 137.036 155.198 134.384 157.357C130.407 160.59 123.631 163.054 119.227 165.963V174.245L132.197 166.908C135.052 166.287 137.101 170.039 134.477 171.827L119.227 180.35V188.632L132.632 181.295C134.792 181.351 136.433 183.287 135.312 185.297C133.726 188.132 121.962 192.43 119.227 195.385V203.01L131.752 196.126C135.988 195.524 137.082 198.526 133.763 201.194C129.768 204.399 123.353 206.437 119.227 209.772V217.832L132.206 210.504C135.228 209.865 137.129 213.117 134.653 215.155L119.237 224.159V232.219L132.215 224.891C135.302 224.141 136.999 227.921 134.487 229.801L119.237 238.324V254.017L185.974 215.442V200.406L173.45 207.299C169.723 208.133 168.092 204.492 171.179 202.398L185.983 193.653V185.593L173.005 192.921C170.205 193.486 168.398 190.299 170.595 188.187L185.974 179.266V171.206L173.005 178.553C170.029 178.775 168.258 175.746 170.724 173.615L185.983 165.101V156.819C182.294 157.746 175.814 163.665 172.579 164.156C170.001 164.546 168.509 160.673 170.743 159.237L185.993 150.066V142.442L173.469 149.325C169.751 150.344 168.11 146.536 171.188 144.433L185.993 135.688V127.628L173.014 134.956C169.89 135.614 168.527 132.371 170.604 130.222L185.993 121.31V113.251L173.014 120.579C170.048 121.162 168.333 117.568 170.734 115.659L185.993 107.146L185.965 107.109ZM47.2522 113.214C50.9418 114.186 57.3662 120.05 60.6572 120.551C62.7338 120.866 64.0317 118.577 63.1602 116.706C62.2054 114.631 49.7552 108.989 47.2429 107.109V113.214H47.2522ZM47.2615 121.496L47.6879 127.823L59.897 134.827C62.8728 135.735 64.8567 132.177 62.3166 130.213L47.2708 121.496H47.2615ZM73.747 123.321C73.3204 123.404 72.5417 123.747 72.3286 124.108C71.726 125.952 71.9486 127.073 73.4504 128.231C74.7575 129.24 84.4172 134.799 85.7243 135.169C88.8484 136.049 90.5357 132.825 87.7731 130.473C86.2619 129.185 78.1226 124.488 76.2129 123.719C75.258 123.339 74.8501 123.098 73.747 123.321ZM47.2522 136.318L47.6879 142.201C51.2477 143.609 56.4763 148.306 59.8877 149.195C62.8357 149.964 64.5878 147.101 62.7523 145.026L47.2522 136.327V136.318ZM72.6531 138.171C71.3739 139.459 72.1246 141.552 73.4504 142.608C76.7877 145.249 82.0438 147.129 85.6224 149.63C89.0431 150.548 90.6191 146.907 87.5226 144.674C86.0024 143.581 77.01 138.245 75.6195 137.819C74.7667 137.55 73.302 137.522 72.6531 138.171ZM113.99 151.576L113.563 145.249C110.356 144.081 102.81 137.911 99.8617 138.078C97.5439 138.208 97.1547 141.237 98.7028 142.664L113.99 151.576ZM47.2522 150.705V156.81C51.1458 157.31 64.2356 169.817 63.0675 159.96L47.2522 150.705ZM72.6809 156.68L85.6316 164.008C88.3015 165.064 90.341 161.942 88.496 159.839C84.7416 158.292 78.7808 153.095 75.1746 152.187C72.5325 151.53 71.1049 154.744 72.6902 156.68H72.6809ZM113.99 165.963L113.563 159.636L101.364 152.641L99.4815 152.521C97.4605 153.605 97.1455 155.698 98.9439 157.246C102.689 160.46 109.799 162.98 113.99 165.963ZM47.2522 165.092V171.197C51.1365 172.244 56.8192 177.645 60.4254 178.312C63.3178 178.849 64.3467 175.829 62.6318 173.791L47.2522 165.092ZM88.561 174.365C84.5561 172.642 79.6152 168.297 75.7122 166.908C72.5417 165.787 70.9844 168.705 72.7457 171.216C76.2406 172.466 83.8796 178.96 87.1705 178.645C89.3489 178.441 89.5807 175.977 88.561 174.365ZM113.99 174.245L100.585 166.908C98.2394 166.908 97.3771 168.724 97.9242 170.901L113.99 180.341V174.236V174.245ZM47.2615 179.47L47.6879 185.797L59.897 192.801C61.0558 193.282 62.1404 192.717 62.9933 191.93C63.874 190.457 63.5495 189.253 62.3166 188.187C58.5157 184.926 51.4517 182.564 47.2708 179.47H47.2615ZM73.302 181.295C71.6981 181.777 71.5962 184.936 73.0146 185.769C76.7598 187.307 82.4517 192.328 86.0766 193.236C88.9134 193.949 90.5265 190.642 87.5226 188.261C85.9098 186.983 77.6869 182.11 75.9161 181.554C74.9893 181.258 74.3033 180.989 73.2928 181.295H73.302ZM113.99 194.728C113.739 193.005 114.629 189.827 113.359 188.604C110.912 186.233 104.339 184.148 101.456 181.758C98.1373 180.859 96.7653 183.342 98.4804 186.038L113.99 194.728ZM47.2615 193.857L47.6879 200.184C51.3034 201.481 56.4948 206.28 59.897 207.169C63.2992 208.058 64.727 204.631 62.3073 202.574L47.2615 193.857ZM72.6531 196.145C71.1697 197.627 72.3194 199.758 73.7099 200.758C77.2048 203.269 82.0625 205.048 85.6224 207.623C88.5702 208.531 90.6933 205.14 87.7823 202.824C86.5958 201.88 76.7969 196.154 75.6195 195.793C74.7667 195.524 73.302 195.497 72.6531 196.145ZM113.99 209.115L113.554 203.232L101.354 196.238C100.233 195.793 98.9252 196.062 98.0723 196.905C97.6276 198.165 97.5997 199.387 98.4989 200.416C99.4815 201.537 109.049 206.799 111.088 207.882C111.579 208.142 113.749 209.383 113.999 209.115H113.99ZM72.6623 214.673L85.6224 221.992C88.2921 223.048 90.3317 219.926 88.4868 217.823C85.029 216.424 78.0855 210.597 74.8409 210.06C72.2452 209.624 71.2439 213.209 72.6623 214.673ZM113.99 223.937L113.563 217.61C110.309 216.517 102.772 210.273 99.8617 210.439C97.5439 210.569 97.1547 213.598 98.7028 215.025L113.99 223.937ZM113.99 232.219L100.585 224.882C97.85 224.91 97.136 227.328 98.3968 229.495L113.99 238.324V232.219Z" fill="#261321"/>
<path d="M185.965 107.127L170.706 115.641C168.305 117.549 170.02 121.144 172.986 120.56L185.965 113.232V121.292L170.576 130.204C168.509 132.362 169.862 135.596 172.986 134.938L185.965 127.61V135.67L171.16 144.415C168.092 146.518 169.732 150.335 173.441 149.306L185.965 142.423V150.048L170.715 159.219C168.481 160.655 169.973 164.527 172.551 164.138C175.795 163.647 182.275 157.727 185.956 156.801V165.083L170.697 173.597C168.231 175.727 170.011 178.757 172.977 178.534L185.946 171.188V179.248L170.567 188.169C168.361 190.272 170.168 193.459 172.977 192.903L185.956 185.575V193.635L171.151 202.38C168.073 204.474 169.696 208.114 173.422 207.281L185.946 200.388V215.424L119.209 253.999V238.306L134.459 229.783C136.971 227.902 135.274 224.113 132.187 224.873L119.209 232.201V224.141L134.625 215.137C137.11 213.098 135.21 209.856 132.178 210.486L119.2 217.814V209.754C123.325 206.419 129.74 204.381 133.736 201.176C137.054 198.517 135.96 195.506 131.724 196.108L119.2 202.991V195.367C121.925 192.412 133.698 188.113 135.284 185.278C136.415 183.259 134.774 181.332 132.604 181.276L119.2 188.614V180.332L134.449 171.809C137.073 170.021 135.024 166.269 132.169 166.889L119.2 174.227V165.945C123.603 163.036 130.389 160.571 134.357 157.338C137.008 155.18 135.367 151.9 132.178 152.512L119.2 159.839V151.78C123.334 148.51 129.768 146.388 133.736 143.201C137.045 140.552 135.97 137.522 131.733 138.152L119.2 145.452V138.912L185.937 100.55V107.09L185.965 107.127ZM157.486 123.349L144.554 130.908C142.709 132.955 145.018 136.402 147.595 135.262C150.098 133.317 161.028 128.833 161.473 125.989C161.843 123.645 159.377 122.913 157.486 123.349ZM144.628 149.306C145.222 149.899 146.872 149.964 147.687 149.751C148.55 149.529 159.127 143.359 160.119 142.544C163.03 140.172 161.009 136.948 157.597 137.838C156.031 138.245 148.466 142.822 146.733 143.998C145.11 145.1 142.496 147.194 144.619 149.306H144.628ZM160.555 152.577C159.859 151.919 158.487 151.937 157.597 152.215C156.531 152.549 146.464 158.394 145.425 159.247C142.394 161.729 144.035 165.268 148.04 164.036C148.985 163.749 159.322 157.774 160.212 157.023C161.639 155.819 161.936 153.883 160.555 152.577ZM158.367 166.491C155.308 166.963 148.086 172.93 144.73 174.254C142.756 176.135 144.517 179.535 147.141 178.877C149.662 177.163 160.629 172.29 161.361 169.909C161.862 168.298 160.063 166.232 158.367 166.491ZM158.701 180.989C156.151 180.989 147.752 187.585 144.73 188.623C142.579 190.716 144.814 194.135 147.586 193.255C150.107 191.18 160.166 187.085 161.213 184.602C161.955 182.842 160.527 180.999 158.701 180.999V180.989ZM144.656 203.149C143.219 205.372 144.424 208.346 147.252 207.735L160.379 200.342C162.965 198.118 160.749 194.654 157.496 195.719L144.647 203.149H144.656ZM144.628 221.668C145.333 222.372 147.113 222.288 148.031 222.01C148.781 221.788 159.415 215.646 160.212 214.997C163.011 212.691 160.916 209.18 157.597 210.199C154.075 212.709 148.698 214.627 145.425 217.221C144.09 218.277 143.349 220.38 144.628 221.668Z" fill="#FFBA31"/>
<path d="M116.472 57.4873L182.904 95.9977L116.797 134.138L115.425 133.804L50.3097 95.9977L116.472 57.4873ZM115.619 63.1754L79.9378 83.7601C79.2797 84.2418 79.1684 84.7419 79.0663 85.511C78.8068 87.5305 78.7976 94.0061 79.0663 96.0162C79.2518 97.4152 80.0491 97.9617 81.1244 98.7585L116.75 118.759L152.812 98.1933C153.387 97.6653 153.943 97.2577 154.101 96.424C154.407 94.8028 154.37 87.2802 154.129 85.511C153.888 83.7414 152.553 83.2506 151.19 82.3518C142.8 76.775 128.96 68.6875 119.94 64.3241C118.354 63.5552 117.557 62.7955 115.61 63.1846L115.619 63.1754Z" fill="#FFBA31"/>
<path d="M72.6528 138.187C73.3018 137.539 74.7665 137.567 75.6193 137.835C77.0098 138.271 86.0114 143.598 87.5224 144.691C90.6097 146.923 89.0429 150.564 85.6222 149.647C82.0436 147.146 76.7874 145.265 73.4502 142.625C72.1152 141.569 71.3734 139.466 72.6528 138.187Z" fill="#FFBA31"/>
<path d="M73.7442 123.333C74.8473 123.111 75.2644 123.352 76.2099 123.732C78.1196 124.501 86.2591 129.188 87.7701 130.485C90.5327 132.829 88.8364 136.053 85.7215 135.182C84.4144 134.811 74.7547 129.253 73.4474 128.243C71.9456 127.085 71.7232 125.973 72.3258 124.121C72.539 123.759 73.3176 123.417 73.7442 123.333Z" fill="#FFBA31"/>
<path d="M73.3031 181.295C74.3136 180.99 74.9997 181.258 75.9267 181.555C77.688 182.111 85.9201 186.984 87.5332 188.262C90.5368 190.643 88.9237 193.941 86.087 193.237C82.4623 192.329 76.7609 187.308 73.025 185.77C71.6066 184.936 71.7087 181.777 73.3123 181.295H73.3031Z" fill="#FFBA31"/>
<path d="M72.6611 214.69C71.2427 213.217 72.244 209.641 74.8397 210.076C78.0844 210.614 85.0279 216.441 88.4857 217.84C90.3398 219.952 88.2909 223.065 85.621 222.009L72.6611 214.69Z" fill="#FFBA31"/>
<path d="M88.5626 174.366C89.5823 175.978 89.3505 178.433 87.1719 178.646C83.8809 178.961 76.2422 172.467 72.7473 171.216C70.9858 168.715 72.5434 165.787 75.7138 166.908C79.6166 168.289 84.5577 172.633 88.5626 174.366Z" fill="#FFBA31"/>
<path d="M72.6807 156.699C71.0955 154.763 72.5325 151.548 75.1653 152.206C78.7713 153.104 84.723 158.302 88.4868 159.858C90.341 161.97 88.2921 165.083 85.6222 164.027L72.6715 156.699H72.6807Z" fill="#FFBA31"/>
<path d="M72.6528 196.163C73.3018 195.514 74.7664 195.542 75.6193 195.811C76.7967 196.172 86.6048 201.907 87.7821 202.842C90.6931 205.158 88.57 208.549 85.6222 207.641C82.0623 205.065 77.2045 203.287 73.7096 200.776C72.3097 199.767 71.1695 197.645 72.6528 196.163Z" fill="#FFBA31"/>
<path d="M113.991 174.251V180.356L97.9253 170.916C97.3782 168.739 98.2406 166.914 100.586 166.923L113.991 174.26V174.251Z" fill="#FFBA31"/>
<path d="M113.989 223.946L98.7017 215.034C97.1535 213.607 97.543 210.578 99.8606 210.448C102.772 210.291 110.308 216.526 113.562 217.619L113.989 223.946Z" fill="#FFBA31"/>
<path d="M113.989 165.975C109.799 163.001 102.679 160.482 98.9434 157.258C97.1448 155.711 97.46 153.617 99.481 152.533L101.363 152.653L113.563 159.648L113.989 165.975Z" fill="#FFBA31"/>
<path d="M113.987 209.126C113.746 209.395 111.567 208.154 111.076 207.894C109.036 206.81 99.4695 201.549 98.4869 200.428C97.5875 199.409 97.6246 198.186 98.0604 196.917C98.9132 196.073 100.22 195.805 101.342 196.25L113.542 203.244L113.978 209.126H113.987Z" fill="#FFBA31"/>
<path d="M47.2514 165.103L62.6309 173.802C64.346 175.84 63.3169 178.86 60.4246 178.323C56.8184 177.656 51.1356 172.255 47.2514 171.208V165.103Z" fill="#FFBA31"/>
<path d="M47.2514 150.722L63.0666 159.977C64.2347 169.834 51.1356 157.318 47.2514 156.827V150.722Z" fill="#FFBA31"/>
<path d="M47.2626 193.866L62.3084 202.583C64.7187 204.64 63.1613 208.04 59.8981 207.178C56.635 206.316 51.3045 201.49 47.689 200.193L47.2626 193.866Z" fill="#FFBA31"/>
<path d="M113.989 151.572L98.7017 142.66C97.1535 141.233 97.543 138.204 99.8606 138.074C102.808 137.907 110.354 144.077 113.562 145.244L113.989 151.572Z" fill="#FFBA31"/>
<path d="M47.2606 121.509L62.3065 130.226C64.8558 132.19 62.8627 135.757 59.8869 134.84L47.6778 127.836L47.2514 121.509H47.2606Z" fill="#FFBA31"/>
<path d="M47.2514 113.215V107.11C49.7544 108.99 62.2045 114.632 63.1686 116.707C64.04 118.588 62.7422 120.867 60.6656 120.552C57.3746 120.052 50.9502 114.187 47.2606 113.215H47.2514Z" fill="#FFBA31"/>
<path d="M47.2606 179.484C51.4508 182.579 58.5056 184.932 62.3064 188.202C63.5394 189.267 63.8639 190.471 62.9832 191.945C62.1303 192.741 61.0457 193.297 59.8869 192.815L47.6778 185.812L47.2514 179.484H47.2606Z" fill="#FFBA31"/>
<path d="M113.99 194.741L98.4802 186.051C96.756 183.355 98.1373 180.873 101.456 181.771C104.339 184.161 110.912 186.236 113.359 188.617C114.629 189.85 113.739 193.018 113.99 194.741Z" fill="#FFBA31"/>
<path d="M47.2514 136.323L62.7514 145.022C64.5871 147.106 62.8441 149.969 59.8869 149.191C56.4754 148.301 51.2469 143.604 47.6871 142.196L47.2514 136.314V136.323Z" fill="#FFBA31"/>
<path d="M113.989 232.227V238.332L98.3959 229.503C97.1351 227.336 97.8488 224.918 100.584 224.89L113.989 232.227Z" fill="#FFBA31"/>
<path d="M144.654 203.134L157.503 195.704C160.747 194.639 162.972 198.104 160.386 200.327L147.259 207.72C144.422 208.322 143.217 205.348 144.663 203.134H144.654Z" fill="#261321"/>
<path d="M160.555 152.563C161.927 153.869 161.63 155.806 160.212 157.01C159.322 157.76 148.985 163.726 148.04 164.023C144.035 165.255 142.403 161.725 145.425 159.233C146.454 158.381 156.531 152.535 157.597 152.202C158.487 151.924 159.859 151.905 160.555 152.563Z" fill="#261321"/>
<path d="M158.367 166.477C160.064 166.218 161.862 168.283 161.362 169.895C160.629 172.276 149.662 177.149 147.141 178.863C144.517 179.521 142.756 176.121 144.731 174.24C148.086 172.925 155.299 166.949 158.367 166.477Z" fill="#261321"/>
<path d="M144.626 221.663C143.346 220.384 144.097 218.272 145.423 217.216C148.695 214.622 154.082 212.695 157.595 210.194C160.914 209.175 163.009 212.695 160.209 214.993C159.412 215.641 148.788 221.783 148.028 222.005C147.101 222.283 145.321 222.367 144.626 221.663Z" fill="#261321"/>
<path d="M157.485 123.331C159.376 122.896 161.832 123.627 161.471 125.971C161.026 128.806 150.096 133.299 147.593 135.245C145.016 136.375 142.708 132.938 144.552 130.891L157.485 123.331Z" fill="#261321"/>
<path d="M144.626 149.303C142.503 147.182 145.108 145.088 146.74 143.995C148.473 142.828 156.038 138.242 157.605 137.834C161.007 136.945 163.028 140.178 160.126 142.54C159.125 143.356 148.557 149.525 147.695 149.748C146.833 149.97 145.229 149.896 144.635 149.303H144.626Z" fill="#261321"/>
<path d="M158.699 180.981C160.525 180.981 161.953 182.824 161.211 184.584C160.164 187.076 150.096 191.162 147.584 193.237C144.812 194.117 142.578 190.708 144.729 188.605C147.76 187.567 156.15 180.971 158.699 180.971V180.981Z" fill="#261321"/>
<path d="M115.619 63.1848C117.565 62.805 118.363 63.5553 119.948 64.3242C128.968 68.6876 142.809 76.7842 151.198 82.3521C152.561 83.2598 153.905 83.7324 154.137 85.511C154.369 87.2897 154.415 94.7936 154.109 96.424C153.952 97.2485 153.395 97.6655 152.821 98.1935L116.759 118.759L81.1327 98.7585C80.0574 97.9619 79.2601 97.4245 79.0748 96.0164C78.8059 94.0061 78.8151 87.5305 79.0748 85.511C79.1767 84.7513 79.2788 84.2418 79.9461 83.7601L115.628 63.1755L115.619 63.1848ZM145.831 85.3349L116.759 68.8543L87.3809 85.3349L116.462 102.696L145.821 85.3349H145.831ZM148.881 90.56L120.105 106.92C118.715 107.819 119.308 109.607 119.225 111.043L148.788 94.3952L148.881 90.56Z" fill="#261321"/>
<path d="M145.833 85.3398L116.474 102.7L87.3832 85.3306L116.761 68.8499L145.833 85.3398Z" fill="#FFBA31"/>
<path d="M148.885 90.566L148.792 94.4012L119.229 111.049C119.312 109.603 118.719 107.816 120.11 106.926L148.885 90.566Z" fill="#FFBA31"/>
<g filter="url(#filter0_d_3_173)">
<path d="M11.4835 89.2619C8.77395 90.8274 6.54901 91.3751 4.80872 90.9051C3.06843 90.4094 2.13219 88.8133 2 86.1166L8.90612 82.1264C8.9722 83.0296 9.21453 83.5763 9.63308 83.7671C10.0516 83.9578 10.5913 83.8621 11.2522 83.4803C11.847 83.1367 12.3316 82.6913 12.7061 82.1442C13.1027 81.5589 13.3009 80.9609 13.3009 80.3504C13.3009 79.5617 12.9815 79.1356 12.3427 79.0723C11.7038 79.0088 10.6685 79.1236 9.23657 79.4167C7.71655 79.7098 6.48292 79.8628 5.53568 79.8759C4.61045 79.8506 3.79538 79.5202 3.09044 78.8843C2.40754 78.2103 2.0661 77.0212 2.0661 75.3166C2.0661 73.5866 2.44058 71.8944 3.18957 70.2406C3.93856 68.5612 4.97393 67.0215 6.29567 65.6219C7.61742 64.2221 9.1154 63.0386 10.7896 62.0713C13.4992 60.5058 15.658 59.9963 17.2661 60.5427C18.8963 61.051 19.7664 62.5964 19.8766 65.1787L12.8383 69.2453C12.8163 68.4439 12.596 67.9604 12.1774 67.7953C11.7809 67.6172 11.2632 67.7129 10.6244 68.0819C10.1398 68.362 9.74322 68.7565 9.43482 69.2654C9.12641 69.7743 8.9722 70.334 8.9722 70.9447C8.9722 71.4536 9.13743 71.8033 9.46787 71.994C9.82033 72.1465 10.2499 72.2163 10.7566 72.2035C11.2632 72.1652 12.0122 72.0631 13.0035 71.8974C14.4795 71.6299 15.6911 71.5149 16.6383 71.5528C17.6075 71.5526 18.4338 71.8767 19.1166 72.5252C19.8216 73.1355 20.1741 74.2294 20.1741 75.8067C20.1741 77.4097 19.8216 79.0508 19.1166 80.7301C18.4338 82.3968 17.4314 83.9809 16.1096 85.4823C14.8099 86.9711 13.2679 88.2309 11.4835 89.2619ZM34.3537 76.0482C32.1727 77.3082 30.168 77.8813 28.3397 77.7673C26.5113 77.6281 25.0574 76.8271 23.9779 75.3645C22.9205 73.8637 22.3919 71.7905 22.3919 69.1445C22.3919 66.4987 22.9205 63.827 23.9779 61.1299C25.0574 58.3945 26.5113 55.9136 28.3397 53.6867C30.168 51.4601 32.1727 49.7166 34.3537 48.4567C36.5565 47.1838 38.561 46.6107 40.3676 46.7373C42.1958 46.8513 43.6389 47.6586 44.6963 49.1592C45.7537 50.6346 46.2823 52.6952 46.2823 55.341C46.2823 57.987 45.7537 60.6713 44.6963 63.3939C43.6389 66.0912 42.1958 68.5658 40.3676 70.8179C38.5391 73.0446 36.5344 74.788 34.3537 76.0482ZM34.3537 69.1025C36.0058 68.148 37.3054 66.7736 38.2528 64.9797C39.222 63.1731 39.7066 61.2266 39.7066 59.1403C39.7066 57.0032 39.222 55.6041 38.2528 54.943C37.3054 54.2436 36.0058 54.3712 34.3537 55.3258C32.6795 56.2931 31.3686 57.6738 30.4214 59.4677C29.4741 61.2362 29.0005 63.1891 29.0005 65.3262C29.0005 67.4377 29.4741 68.8433 30.4214 69.5427C31.3686 70.2165 32.6795 70.0699 34.3537 69.1025ZM64.0634 44.8004C65.4293 44.3674 66.5086 44.5325 67.3017 45.2954C68.1167 46.0203 68.5242 47.1588 68.5242 48.7107C68.5242 51.0005 67.8414 53.1887 66.4756 55.2753C65.1097 57.362 63.1933 59.118 60.726 60.5435L49.1938 67.2066V40.302L60.3625 33.849C62.7416 32.4745 64.603 32.0096 65.9468 32.4543C67.3127 32.8863 67.9956 34.209 67.9956 36.4225C67.9956 37.9998 67.6321 39.5328 66.9052 41.0214C66.2003 42.4719 65.2529 43.7315 64.0634 44.8004ZM55.6703 47.2456L58.9416 45.3554C60.5718 44.4136 61.3868 43.1666 61.3868 41.6147C61.3868 40.0119 60.5718 39.6815 58.9416 40.6233L55.6703 42.5133V47.2456ZM59.4372 55.2586C61.0674 54.3165 61.8824 53.057 61.8824 51.4796C61.8824 50.6654 61.6621 50.1695 61.2217 49.9914C60.8031 49.8009 60.1972 49.9346 59.4043 50.3928L55.6703 52.5502V57.435L59.4372 55.2586ZM92.2133 15.4463V42.351L85.7366 46.0929V35.2931L77.8392 39.8559V50.6559L71.3627 54.398V27.4933L77.8392 23.7514V33.8644L85.7366 29.3014V19.1884L92.2133 15.4463ZM110.657 27.3059L102.396 32.0788L101.14 37.1931L94.3334 41.1259L102.826 9.31479L110.294 5L118.753 27.0171L111.913 30.9691L110.657 27.3059ZM109.038 22.517L106.526 15.267L104.048 25.3999L109.038 22.517Z" fill="#FFBA31"/>
</g>
<defs>
<filter id="filter0_d_3_173" x="0.011456" y="0.324236" width="120.73" height="90.7437" filterUnits="userSpaceOnUse" color-interpolation-filters="sRGB">
<feFlood flood-opacity="0" result="BackgroundImageFix"/>
<feColorMatrix in="SourceAlpha" type="matrix" values="0 0 0 0 0 0 0 0 0 0 0 0 0 0 0 0 0 0 127 0" result="hardAlpha"/>
<feOffset dy="-2.68722"/>
<feGaussianBlur stdDeviation="0.994272"/>
<feComposite in2="hardAlpha" operator="out"/>
<feColorMatrix type="matrix" values="0 0 0 0 1 0 0 0 0 1 0 0 0 0 1 0 0 0 0.34 0"/>
<feBlend mode="normal" in2="BackgroundImageFix" result="effect1_dropShadow_3_173"/>
<feBlend mode="normal" in="SourceGraphic" in2="effect1_dropShadow_3_173" result="shape"/>
</filter>
</defs>
</svg>
