<svg width="579" height="118" viewBox="0 0 579 118" fill="none" xmlns="http://www.w3.org/2000/svg">
<path d="M0 118V42.553H6.00365V33.4156H15.661V42.2914H25.5799V112.256H29.4952H33.6712V93.4595H43.8508V87.7164H54.2912V92.6764H58.4672V83.0173H75.1721V77.2742H81.9588V82.2341H86.1348V51.1681H90.5723V38.3763L93.1822 36.2875L96.0537 38.3763V49.6017H98.9251V43.597H111.519V49.7317H115.043V102.597H116.804V60.109H124.831V52.0813H136.968V58.5426H138.926V113.953H169.269V104.163H171.618V14.6848H174.75V11.3562H180.623V0H187.475V1.56638H191.977V10.7689H195.11V82.0391H201.57V76.5568H208.813V73.6198H221.537V110.625H228.389V69.5081H236.611V62.6551H247.965V68.3333H251.293V113.954H257.558V49.5367H264.605V39.9427H276.743V48.7535H278.7V82.6265H283.79V68.7249H289.076V59.914L292.599 57.7602L295.536 59.914V67.7459H305.715V87.5214H308.065V37.3973H330.186V110.038H338.016V93.1995H342.519V82.0391H346.63V73.6198H355.048V82.6265H364.248V112.975H368.751V68.7249H390.285V112.975H398.115V15.8596H407.708V0.783189H418.67V15.468H421.215V113.171H423.173V68.9207H447.056V110.43H454.495V103.577H467.415V106.71H477.008V115.325H481.119V68.1375L487.873 61.3825H500.108V101.031H505.393V108.472H533.387V113.954H537.498V93.0037H548.265V87.5214H559.032V91.6331H563.339V48.3619H568.625V44.0544H573.127H579V117.283C579 117.283 0.0649932 117.935 0 118Z" fill="#5E2D4F"/>
</svg>
