<svg width="23" height="23" viewBox="0 0 23 23" fill="none" xmlns="http://www.w3.org/2000/svg">
<path fill-rule="evenodd" clip-rule="evenodd" d="M10.2898 0.566726C10.2086 0.580691 9.94276 0.620458 9.6991 0.655077C5.76034 1.21501 2.29169 4.14302 1.01228 7.98805C-0.406704 12.2526 0.910392 16.9136 4.35346 19.8123C6.26608 21.4224 8.45862 22.2636 10.9723 22.3515C13.3028 22.4331 15.4551 21.8309 17.3484 20.5675C22.8056 16.926 23.8976 9.46759 19.7095 4.44175C18.0416 2.44009 15.8478 1.17779 13.1546 0.669753C12.7044 0.584834 10.6203 0.509857 10.2898 0.566726ZM12.595 1.30318C15.6152 1.66795 18.4101 3.4674 20.0415 6.09752C21.6261 8.65207 21.9859 11.868 21.0117 14.7675C20.774 15.4749 20.1432 16.7062 19.6954 17.3368C19.4767 17.6449 19.0191 18.1869 18.6786 18.5412C17.2094 20.0703 15.384 21.0699 13.2878 21.4935C12.7194 21.6083 12.4387 21.6278 11.353 21.6278C10.2673 21.6278 9.98659 21.6083 9.41824 21.4935C6.61795 20.9277 4.16651 19.2255 2.66447 16.8039C2.01508 15.757 1.5296 14.4751 1.30225 13.207C1.12841 12.2374 1.12812 10.6657 1.30154 9.69844C1.93918 6.14291 4.37455 3.18986 7.74242 1.88856C8.28963 1.67718 9.46006 1.38005 10.024 1.30946C10.6139 1.2356 12.0073 1.23217 12.595 1.30318ZM6.56851 5.40852C6.56851 5.42142 6.66148 5.62807 6.77507 5.8678C7.04134 6.42944 7.09598 6.86197 7.09829 8.42536L7.10012 9.66074L6.42586 9.63488C5.81504 9.61145 5.72886 9.59393 5.5103 9.44907L5.26901 9.28911L5.26937 9.54144C5.2699 9.95745 5.38272 10.2487 5.64516 10.5117C5.9265 10.7935 6.19821 10.8877 6.73094 10.8882L7.10012 10.8885V11.4507V12.0129H6.44801C5.9125 12.0129 5.75455 11.9917 5.56435 11.8946C5.437 11.8295 5.31845 11.7762 5.30091 11.7762C5.23847 11.7762 5.27037 12.1736 5.35602 12.4624C5.52058 13.0177 5.98367 13.3148 6.68475 13.3148H7.10012L7.09575 14.0693C7.09338 14.4843 7.07194 15.2233 7.0482 15.7115C7.00974 16.5015 6.98718 16.638 6.84305 16.9526C6.75398 17.147 6.63679 17.3552 6.58256 17.4152C6.48681 17.5212 6.57081 17.5236 9.46484 17.5003C12.232 17.4781 12.4818 17.4675 12.9478 17.3537C14.4435 16.9884 15.4924 16.3742 16.2271 15.4336C16.5996 14.9566 16.9673 14.2352 17.1185 13.6847L17.2201 13.3148H17.9996C18.7337 13.3148 18.7918 13.3234 18.9967 13.4627C19.1164 13.5441 19.2295 13.6107 19.248 13.6107C19.3121 13.6107 19.1986 12.9293 19.0949 12.6915C18.8954 12.2343 18.4498 12.0129 17.7294 12.0129H17.437V11.4458V10.8787L18.1411 10.8984C18.7583 10.9157 18.8671 10.9344 19.0227 11.0498L19.2003 11.1815L19.2387 11.0064C19.3028 10.7137 19.1118 10.1801 18.8553 9.93562C18.5884 9.68116 18.2643 9.58665 17.6587 9.58665H17.224L17.0877 9.15762C16.432 7.09382 14.6753 5.75382 12.2214 5.44557C11.7771 5.38976 6.56851 5.35562 6.56851 5.40852ZM11.5224 6.09657C13.4057 6.26357 14.482 7.18016 14.9788 9.04003L15.1248 9.58665H12.0576H8.99029V7.81134V6.03604L9.92061 6.03657C10.4323 6.03681 11.1531 6.06385 11.5224 6.09657ZM15.2515 11.4507V12.0129H12.1209H8.99029V11.4507V10.8885H12.1209H15.2515V11.4507ZM15.0743 13.4195C15.0743 13.6602 14.8135 14.4387 14.5864 14.8761C14.2453 15.533 13.7103 16.0588 13.0595 16.3767C12.3049 16.7454 11.8914 16.8174 10.3341 16.8513L8.99029 16.8805V15.0976V13.3148H12.0323C14.9032 13.3148 15.0743 13.3207 15.0743 13.4195Z" fill="#5E2D4F"/>
</svg>
