<svg width="100" height="21" viewBox="0 0 100 21" fill="none" xmlns="http://www.w3.org/2000/svg">
<path d="M14.5272 18.4089L14.2304 20.3755H0.03125C0.618758 19.015 0.581652 18.2482 0.581652 17.2648V3.74599C0.581652 2.79361 0.618758 1.95873 0.03125 0.635288H4.28604H13.8841L13.9088 2.639C13.6491 2.53387 13.4388 2.4411 13.2471 2.35452C12.7338 2.16281 12.0844 1.98346 11.4103 1.98965C10.3343 1.98965 5.81975 1.98965 3.81604 1.98965V9.72001H12.7276L12.2885 11.2413H3.81604V18.9779C5.45487 18.9779 10.693 18.9779 11.8494 18.9779C13.2038 19.0026 14.552 18.2358 14.552 18.2358L14.5149 18.4028C14.5149 18.4089 14.521 18.4089 14.5272 18.4089ZM35.9001 20.3755C36.0919 19.4046 36.0919 18.0317 35.9372 16.9123L34.6757 7.61117L27.7864 20.3694H26.4753L19.4747 7.03603L18.1141 17.1164C17.9657 18.2791 17.9224 19.7509 18.0461 20.3755H15.5847C16.0609 19.3675 16.1784 18.9284 16.4011 17.271L18.6274 0.635288H19.7591L27.9286 16.1579L36.0919 0.635288H36.9453L39.2458 17.2339C39.4747 18.8851 39.6478 19.3613 40.1055 20.3755H35.9001ZM56.6361 20.3755L53.3584 13.1461H46.7659L43.5316 20.3755H43.2533H40.9713H40.9589C41.7752 19.3613 42.0535 18.8913 42.6287 17.6297L50.2724 0.635288H51.1321L58.6522 17.1535C59.4561 18.7676 59.8334 19.2686 60.9836 20.3755H56.6361ZM77.2607 20.3755L73.983 13.1461H67.3906L64.1562 20.3755H63.8841H61.5959H61.5835C62.3998 19.3613 62.6781 18.8913 63.2533 17.6297L70.897 0.635288H71.7567L79.283 17.1535C80.0869 18.7676 80.4641 19.2686 81.6144 20.3755H77.2607ZM95.9496 20.3879C93.9768 18.5883 91.4227 16.2012 88.2254 12.4164C87.3102 11.3465 86.667 11.2104 86.2526 11.1857V17.2648C86.2526 18.242 86.2526 19.015 86.8092 20.3755H82.4679C83.0554 19.015 83.0183 18.2482 83.0183 17.2648V3.73362C83.0183 2.78124 83.0554 1.94636 82.4679 0.622919H86.7227C89.6293 0.622919 96.5 0.363179 96.5 6.04036C96.5 9.03974 94.1191 10.6538 91.3238 11.062L90.4951 11.1424C90.4951 11.1424 99.5612 20.0045 99.9509 20.3879H95.9496ZM90.8105 9.93028L90.8043 9.93646C92.6348 9.24382 93.2533 7.50604 93.1914 6.03417C93.1234 4.61797 92.4864 1.53819 86.2588 1.78557V10.2024C86.2588 10.2024 89.7468 10.3941 90.7239 9.96738C90.7795 9.94265 90.8105 9.93028 90.8105 9.93028ZM68.0214 11.767H73.346L70.662 5.87338L68.0214 11.767ZM47.4029 11.767H52.7276L50.0436 5.87338L47.4029 11.767Z" fill="black"/>
</svg>
