<svg width="15" height="20" viewBox="0 0 15 20" fill="none" xmlns="http://www.w3.org/2000/svg">
<path d="M6.44678 15.3171C2.86025 14.8698 0.0849609 11.8104 0.0849609 8.10269C0.0849609 4.08721 3.34014 0.832031 7.35562 0.832031C11.3711 0.832031 14.6263 4.08721 14.6263 8.10269C14.6263 11.8104 11.851 14.8698 8.26445 15.3171V17.2015C11.851 17.2854 14.6263 17.8591 14.6263 18.5543C14.6263 19.3071 11.3711 19.9175 7.35562 19.9175C3.34014 19.9175 0.0849609 19.3071 0.0849609 18.5543C0.0849609 17.8591 2.86025 17.2854 6.44678 17.2015V15.3171ZM7.35562 13.5557C10.3672 13.5557 12.8086 11.1143 12.8086 8.10269C12.8086 5.09108 10.3672 2.6497 7.35562 2.6497C4.34401 2.6497 1.90262 5.09108 1.90262 8.10269C1.90262 11.1143 4.34401 13.5557 7.35562 13.5557ZM7.35562 9.92035C6.35172 9.92035 5.53795 9.10658 5.53795 8.10269C5.53795 7.09882 6.35172 6.28502 7.35562 6.28502C8.35951 6.28502 9.17328 7.09882 9.17328 8.10269C9.17328 9.10658 8.35951 9.92035 7.35562 9.92035Z" fill="#5E2D4F"/>
</svg>
