<svg width="19" height="20" viewBox="0 0 19 20" fill="none" xmlns="http://www.w3.org/2000/svg">
<path d="M5.12141 15.8735L5.78007 16.2575C6.88044 16.8992 8.131 17.2418 9.43599 17.2418C13.4515 17.2418 16.7066 13.9866 16.7066 9.97113C16.7066 5.95566 13.4515 2.70048 9.43599 2.70048C5.4205 2.70048 2.16532 5.95566 2.16532 9.97113C2.16532 11.2765 2.50816 12.5275 3.1502 13.6281L3.53408 14.2861L2.94016 16.4687L5.12141 15.8735ZM0.351455 19.0595L1.58016 14.5439C0.796583 13.2008 0.347656 11.6384 0.347656 9.97113C0.347656 4.95179 4.41663 0.882812 9.43599 0.882812C14.4553 0.882812 18.5243 4.95179 18.5243 9.97113C18.5243 14.9904 14.4553 19.0595 9.43599 19.0595C7.76929 19.0595 6.20738 18.6109 4.86444 17.8277L0.351455 19.0595ZM6.15631 5.70719C6.27798 5.69864 6.40007 5.69733 6.52191 5.70328C6.57113 5.70651 6.62011 5.7122 6.66914 5.71786C6.81388 5.73458 6.97304 5.82272 7.02655 5.94404C7.29768 6.5588 7.56075 7.17706 7.81573 7.79869C7.87198 7.93591 7.83808 8.11378 7.73102 8.28589C7.67668 8.37413 7.59132 8.49792 7.49244 8.62452C7.38966 8.75602 7.16845 8.99786 7.16845 8.99786C7.16845 8.99786 7.07883 9.10529 7.11261 9.23898C7.12577 9.28951 7.16774 9.36312 7.20579 9.42502C7.22687 9.45928 7.24644 9.48991 7.25913 9.51108C7.49172 9.89943 7.80437 10.2931 8.18626 10.6633C8.29568 10.7694 8.40183 10.8776 8.51598 10.9781C8.94159 11.3534 9.42309 11.66 9.94312 11.8871L9.94776 11.8892C10.0246 11.9223 10.064 11.9404 10.1764 11.9881C10.2331 12.0121 10.2911 12.0328 10.3506 12.0485C10.3722 12.0542 10.3943 12.0574 10.4164 12.0589C10.5634 12.0677 10.6484 11.9735 10.6846 11.9301C11.3422 11.1335 11.4023 11.0815 11.4069 11.0819V11.0834C11.4933 10.9923 11.6292 10.9607 11.7504 10.9681C11.8058 10.9715 11.8608 10.9821 11.9112 11.0051C12.3945 11.2256 13.1847 11.5695 13.1847 11.5695L13.7132 11.8071C13.8017 11.8498 13.8825 11.9504 13.8865 12.0482C13.8888 12.109 13.8954 12.2071 13.8736 12.3867C13.8452 12.6218 13.7737 12.9049 13.7026 13.0533C13.6526 13.1573 13.5879 13.2497 13.5127 13.3278C13.4106 13.4338 13.3348 13.4981 13.2121 13.5896C13.1374 13.6452 13.0987 13.6714 13.0987 13.6714C12.9724 13.751 12.9013 13.7908 12.7509 13.8708C12.5169 13.9954 12.2585 14.0671 11.9937 14.0807C11.8249 14.0893 11.6566 14.1015 11.488 14.0924C11.4806 14.092 10.9716 14.0138 10.9716 14.0138C9.67938 13.6739 8.48426 13.0372 7.4814 12.1541C7.27636 11.9737 7.08621 11.7783 6.89212 11.5851C6.08411 10.7807 5.47241 9.91333 5.10149 9.09284C4.91858 8.68822 4.80276 8.25489 4.80093 7.809C4.79758 7.25741 4.97816 6.72042 5.31416 6.28296C5.38039 6.19673 5.44326 6.10728 5.55173 6.00486C5.66659 5.89639 5.7397 5.83816 5.81845 5.79788C5.92342 5.74417 6.03872 5.71545 6.15631 5.70719Z" fill="black"/>
</svg>
